<?xml version="1.0" encoding="iso-8859-1"?>
<!-- Generator: Adobe Illustrator 19.0.0, SVG Export Plug-In . SVG Version: 6.00 Build 0)  -->
<svg version="1.1" id="Layer_1" xmlns="http://www.w3.org/2000/svg" xmlns:xlink="http://www.w3.org/1999/xlink" x="0px" y="0px"
	 viewBox="0 0 512 512" style="enable-background:new 0 0 512 512;" xml:space="preserve">
<path style="fill:#D5DEE6;" d="M415.252,334.867c-5.364-1.118-10.952-1.676-16.652-1.676H247.618
	c-46.267,0-83.817-37.55-83.817-83.817c0-27.715-22.575-50.29-50.29-50.29s-50.29,22.575-50.29,50.29
	c0,55.654,40.344,123.602,93.763,158.246c25.257,16.316,40.344,44.032,40.344,73.982v13.634c0,8.829,6.817,16.093,15.534,16.652
	c0.334,0.112,0.781,0.112,1.229,0.112h251.45c9.277,0,16.763-7.488,16.763-16.763v-78.229
	C482.305,376.552,453.471,342.579,415.252,334.867z"/>
<path style="fill:#EBF3F7;" d="M113.512,232.611c-27.731,0-50.29-22.559-50.29-50.29s22.559-50.29,50.29-50.29
	s50.29,22.559,50.29,50.29S141.243,232.611,113.512,232.611z"/>
<path style="fill:#B8CAD9;" d="M482.305,417.008v78.229c0,9.276-7.486,16.763-16.763,16.763H331.435V333.191H398.6
	c5.7,0,11.287,0.559,16.652,1.676C453.471,342.579,482.305,376.552,482.305,417.008z"/>
<path style="fill:#FFB30A;" d="M128.659,36.073c-9.288-8.115-18.891-16.502-21.827-25.805c-4.288-13.691-23.765-13.69-28.081,0
	c-5.565,17.708-0.95,30.864,2.423,40.468c3.023,8.611,4.681,13.353,1.2,21.407c-9.506,21.986-29.648,37.244-10.663,69.018
	c23.846,39.926,72.062,21.394,86.075-15.863C167.741,98.819,161.647,64.883,128.659,36.073z"/>
<path style="fill:#D5DEE6;" d="M273.352,232.611h-59.261c-9.254,0-16.763-7.503-16.763-16.763s7.509-16.763,16.763-16.763h59.261
	c9.254,0,16.763,7.503,16.763,16.763S282.607,232.611,273.352,232.611z"/>
<g>
	<path style="fill:#A3BACC;" d="M448.778,232.611h-59.261c-9.254,0-16.763-7.503-16.763-16.763s7.509-16.763,16.763-16.763h59.261
		c9.254,0,16.763,7.503,16.763,16.763S458.033,232.611,448.778,232.611z"/>
	<path style="fill:#A3BACC;" d="M359.035,205.011c-4.289,0-8.578-1.637-11.852-4.912c-6.548-6.542-6.548-17.161,0-23.704
		l55.376-55.376c6.548-6.548,17.157-6.548,23.704,0c6.548,6.542,6.548,17.161,0,23.704l-55.376,55.376
		C367.614,203.374,363.324,205.011,359.035,205.011z"/>
</g>
<g>
	<path style="fill:#D5DEE6;" d="M303.834,205.011c-4.289,0-8.578-1.637-11.852-4.912l-55.376-55.376
		c-6.548-6.542-6.548-17.161,0-23.704c6.548-6.548,17.157-6.548,23.704,0l55.376,55.376c6.548,6.542,6.548,17.161,0,23.704
		C312.412,203.374,308.123,205.011,303.834,205.011z"/>
	<path style="fill:#D5DEE6;" d="M180.565,165.558H46.458c-9.254,0-16.763-7.503-16.763-16.763s7.509-16.763,16.763-16.763h134.107
		c9.254,0,16.763,7.503,16.763,16.763S189.819,165.558,180.565,165.558z"/>
</g>
<path style="fill:#EBF3F7;" d="M398.6,333.191h-7.041L212.751,512h202.501V334.867C409.887,333.75,404.299,333.191,398.6,333.191z"
	/>
<path style="fill:#CFDCE6;" d="M391.559,333.191l-60.124,60.124V512h83.817V334.867c-5.364-1.118-10.952-1.676-16.652-1.676H391.559
	z"/>
<path style="fill:#D5DEE6;" d="M331.435,199.084c-9.254,0-16.763-7.503-16.763-16.763V98.505c0-9.26,7.509-16.763,16.763-16.763
	c9.254,0,16.763,7.503,16.763,16.763v83.817C348.198,191.581,340.689,199.084,331.435,199.084z"/>
<path style="fill:#A3BACC;" d="M348.198,182.321V98.505c0-9.26-7.509-16.763-16.763-16.763v117.343
	C340.689,199.084,348.198,191.581,348.198,182.321z"/>
<path style="fill:#EBF3F7;" d="M331.435,165.558c-46.267,0-83.817,37.55-83.817,83.817v33.527c0,46.267,37.55,83.817,83.817,83.817
	s83.817-37.55,83.817-83.817v-33.527C415.252,203.108,377.702,165.558,331.435,165.558z"/>
<path style="fill:#CFDCE6;" d="M415.252,282.901v-33.527c0-46.267-37.55-83.817-83.817-83.817v201.16
	C377.702,366.718,415.252,329.168,415.252,282.901z"/>
<path style="fill:#DFE6EB;" d="M415.252,249.374v16.763h-50.29c-12.963,0-24.586-5.029-33.527-13.075
	c-8.94,8.046-20.564,13.075-33.527,13.075h-50.29v-16.763c0-46.267,37.55-83.817,83.817-83.817S415.252,203.108,415.252,249.374z"/>
<path style="fill:#B8CAD9;" d="M364.962,266.138h50.29v-16.763c0-46.267-37.55-83.817-83.817-83.817v87.505
	C340.375,261.109,351.998,266.138,364.962,266.138z"/>
<g>
</g>
<g>
</g>
<g>
</g>
<g>
</g>
<g>
</g>
<g>
</g>
<g>
</g>
<g>
</g>
<g>
</g>
<g>
</g>
<g>
</g>
<g>
</g>
<g>
</g>
<g>
</g>
<g>
</g>
</svg>
